HIERARCHY
ROOT Hips
{
	OFFSET 0.000000 0.000000 0.000000
	CHANNELS 6 Xposition Yposition Zposition Yrotation Xrotation Zrotation
	JOINT Chest
	{
		OFFSET 0.000000 -0.009281 11.569106
		CHANNELS 3 Yrotation Xrotation Zrotation
		JOINT Chest2
		{
			OFFSET -0.000000 0.016865 9.269641
			CHANNELS 3 Yrotation Xrotation Zrotation
			JOINT Chest3
			{
				OFFSET -0.000000 0.000001 8.374491
				CHANNELS 3 Yrotation Xrotation Zrotation
				JOINT Chest4
				{
					OFFSET -0.000000 0.000001 8.374493
					CHANNELS 3 Yrotation Xrotation Zrotation
					JOINT Neck
					{
						OFFSET -0.000000 0.000002 12.152554
						CHANNELS 3 Yrotation Xrotation Zrotation
						JOINT Head
						{
							OFFSET -0.000000 0.040101 7.802319
							CHANNELS 3 Yrotation Xrotation Zrotation
							End Site
							{
								OFFSET -0.000000 0.020947 14.853096
							}
						}
					}
					JOINT RightCollar
					{
						OFFSET 2.894404 0.000001 6.791374
						CHANNELS 3 Yrotation Xrotation Zrotation
						JOINT RightShoulder
						{
							OFFSET 13.574684 0.000001 0.000000
							CHANNELS 3 Yrotation Xrotation Zrotation
							JOINT RightElbow
							{
								OFFSET 23.923903 0.000002 0.000000
								CHANNELS 3 Yrotation Xrotation Zrotation
								JOINT RightWrist
								{
									OFFSET 19.846718 0.012767 0.000000
									CHANNELS 3 Yrotation Xrotation Zrotation
									End Site
									{
										OFFSET 14.973145 0.000001 0.000000
									}
								}
							}
						}
					}
					JOINT LeftCollar
					{
						OFFSET -2.894404 0.000001 6.791374
						CHANNELS 3 Yrotation Xrotation Zrotation
						JOINT LeftShoulder
						{
							OFFSET -13.574684 -0.000001 0.000000
							CHANNELS 3 Yrotation Xrotation Zrotation
							JOINT LeftElbow
							{
								OFFSET -23.923903 -0.000002 0.000000
								CHANNELS 3 Yrotation Xrotation Zrotation
								JOINT LeftWrist
								{
									OFFSET -19.846718 0.012763 0.000000
									CHANNELS 3 Yrotation Xrotation Zrotation
									End Site
									{
										OFFSET -14.973145 -0.000001 0.000000
									}
								}
							}
						}
					}
				}
			}
		}
	}
	JOINT RightHip
	{
		OFFSET 9.469263 0.004643 0.045487
		CHANNELS 3 Yrotation Xrotation Zrotation
		JOINT RightKnee
		{
			OFFSET 0.000000 0.002661 -40.478676
			CHANNELS 3 Yrotation Xrotation Zrotation
			JOINT RightAnkle
			{
				OFFSET 0.000000 0.049106 -35.224068
				CHANNELS 3 Yrotation Xrotation Zrotation
				JOINT RightToe
				{
					OFFSET -0.000001 12.539529 -6.151390
					CHANNELS 3 Yrotation Xrotation Zrotation
					End Site
					{
						OFFSET -0.000001 5.044994 -1.291870
					}
				}
			}
		}
	}
	JOINT LeftHip
	{
		OFFSET -9.469263 0.004641 0.045487
		CHANNELS 3 Yrotation Xrotation Zrotation
		JOINT LeftKnee
		{
			OFFSET 0.000000 0.002661 -40.478676
			CHANNELS 3 Yrotation Xrotation Zrotation
			JOINT LeftAnkle
			{
				OFFSET 0.000000 0.049106 -35.224068
				CHANNELS 3 Yrotation Xrotation Zrotation
				JOINT LeftToe
				{
					OFFSET -0.000001 12.539529 -6.151390
					CHANNELS 3 Yrotation Xrotation Zrotation
					End Site
					{
						OFFSET -0.000001 5.044994 -1.291870
					}
				}
			}
		}
	}
}
MOTION
Frames: 8
Frame Time: 0.016667
13.965556 5.646249 83.161461 -4.248708 -0.665207 -104.298778 -0.461375 -5.292129 1.868361 -0.180536 -2.349777 0.833120 -0.180536 -2.349776 0.833118 -0.132179 -1.762583 0.624058 0.380287 -8.890620 -3.783656 -1.089841 19.592869 -7.239233 -1.625002 15.491822 0.539660 57.309310 32.831206 80.347477 15.839221 22.117068 34.025369 29.657808 -2.666163 -15.694308 0.500391 8.096659 -11.336357 -60.487875 40.270266 -85.328522 -12.435689 22.211758 -37.176498 -31.867316 -10.023303 23.686179 -1.247882 -7.659989 -2.375203 2.826747 -4.614723 -9.732786 -1.580938 6.614633 0.499509 -0.112083 -0.094184 0.000185 -0.632933 -8.419423 1.279448 0.391117 -2.935157 0.953993 -3.560700 5.073384 -1.589853 0.026130 -0.076629 0.001023 
13.895252 5.649616 83.163704 -4.224502 -0.653141 -104.294045 -0.480252 -5.250228 1.866276 -0.190509 -2.332579 0.831439 -0.190509 -2.332579 0.831439 -0.139688 -1.749698 0.622766 0.395901 -8.922163 -3.825609 -1.077335 19.533231 -7.312065 -1.691271 15.530230 0.413864 56.965881 32.640552 80.402630 14.228281 20.280841 34.252029 29.968063 -3.744097 -15.884117 0.656485 7.959310 -11.202006 -60.197333 40.277834 -85.393320 -11.507202 20.524570 -38.496391 -32.299900 -11.921163 24.883791 -1.240624 -7.593857 -2.354244 2.823336 -4.593170 -9.757659 -1.574392 6.581020 0.493336 -0.109240 -0.098253 -0.001118 -0.632099 -8.357840 1.287889 0.401238 -2.903601 0.940468 -3.580089 5.041398 -1.584765 0.025114 -0.091490 0.001879 
13.822500 5.654854 83.164276 -4.214837 -0.645285 -104.292399 -0.495542 -5.211402 1.868034 -0.198656 -2.315602 0.831819 -0.198655 -2.315602 0.831819 -0.145819 -1.736976 0.623027 0.408842 -8.960526 -3.869494 -1.070490 19.460676 -7.389532 -1.751708 15.682910 0.326896 56.561032 32.409254 80.316748 12.478817 18.344824 34.422900 30.206303 -4.714602 -16.016590 0.758025 7.960474 -11.081276 -59.905950 40.174961 -85.376825 -10.839935 19.191308 -39.802289 -32.765435 -13.743030 26.157717 -1.237546 -7.544738 -2.337258 2.826093 -4.564313 -9.780986 -1.571734 6.546645 0.501722 -0.106317 -0.105427 -0.002538 -0.633952 -8.309977 1.278345 0.410113 -2.872004 0.947242 -3.595964 5.017131 -1.562328 0.023535 -0.109763 0.002671 
13.747463 5.663601 83.163368 -4.211161 -0.638422 -104.295732 -0.519404 -5.179660 1.886512 -0.209620 -2.301188 0.839839 -0.209620 -2.301187 0.839839 -0.154030 -1.726184 0.629005 0.427290 -9.003187 -3.923446 -1.057357 19.379986 -7.483783 -1.815908 15.775457 0.226748 56.211992 32.237233 80.268206 10.678479 16.444591 34.666632 30.319763 -5.585524 -16.070242 0.788955 8.192464 -10.983669 -59.632053 39.870423 -85.244797 -10.358786 18.062509 -41.081279 -32.832675 -15.800985 27.506447 -1.239369 -7.502034 -2.322317 2.832880 -4.529474 -9.801397 -1.574705 6.510849 0.512879 -0.100826 -0.115364 -0.004914 -0.639192 -8.266571 1.259194 0.421520 -2.841954 0.962040 -3.608294 4.993921 -1.546147 0.019201 -0.125146 0.002968 
13.666463 5.674083 83.162994 -4.211440 -0.631070 -104.298764 -0.543904 -5.150363 1.912076 -0.220863 -2.288090 0.851211 -0.220863 -2.288090 0.851212 -0.162438 -1.716380 0.637496 0.445758 -9.054849 -3.981590 -1.045501 19.282370 -7.585641 -1.910162 15.764555 0.071397 55.914247 32.048057 80.276463 8.926407 14.723187 35.091009 30.276535 -6.424392 -16.147378 0.786395 8.508843 -10.898215 -59.454570 39.492181 -85.116807 -9.712891 16.853449 -42.295526 -32.573217 -18.061887 28.842625 -1.239196 -7.457240 -2.308726 2.834458 -4.496835 -9.824358 -1.579011 6.470918 0.515282 -0.094426 -0.123890 -0.006263 -0.649642 -8.217563 1.218162 0.439032 -2.820047 0.993070 -3.621520 4.964526 -1.531948 0.014545 -0.133675 0.003328 
13.581917 5.682892 83.164452 -4.217838 -0.624162 -104.300540 -0.552938 -5.120339 1.914527 -0.225997 -2.274100 0.852142 -0.225997 -2.274100 0.852142 -0.166304 -1.705895 0.638181 0.445372 -9.115372 -4.022291 -1.061466 19.168023 -7.661809 -1.992325 15.715676 -0.025121 55.685938 31.844664 80.321809 7.123976 13.009459 35.655456 30.136622 -7.281702 -16.260913 0.787533 8.638069 -10.802221 -59.403733 39.223024 -85.134948 -8.589154 15.410155 -43.449900 -32.440001 -20.318435 30.144818 -1.232865 -7.411221 -2.294003 2.826161 -4.473456 -9.849202 -1.585892 6.429979 0.517843 -0.084889 -0.128899 -0.005538 -0.656764 -8.169836 1.206646 0.455264 -2.801744 0.985242 -3.633224 4.926376 -1.514858 0.009412 -0.134270 0.003804 
13.494038 5.689335 83.166924 -4.218315 -0.618637 -104.306196 -0.555749 -5.089073 1.904119 -0.227985 -2.259873 0.846850 -0.227985 -2.259874 0.846850 -0.167835 -1.695225 0.634211 0.435390 -9.173102 -4.049437 -1.089838 19.058914 -7.716166 -2.058192 15.695901 -0.102046 55.612049 31.577303 80.374572 5.114301 11.157738 36.296851 29.938297 -7.969559 -16.312577 0.829714 8.464055 -10.768400 -59.449502 39.200805 -85.302014 -7.100104 13.873271 -44.607979 -32.449368 -22.323387 31.359055 -1.219085 -7.357485 -2.272987 2.813681 -4.448058 -9.870985 -1.598803 6.383043 0.511018 -0.074146 -0.131284 -0.005401 -0.656870 -8.118548 1.236264 0.464755 -2.774870 0.941303 -3.638929 4.879648 -1.484406 0.003578 -0.132965 0.004996 
13.404687 5.696608 83.168839 -4.210688 -0.613505 -104.323360 -0.565955 -5.058088 1.895275 -0.231753 -2.247335 0.840636 -0.231753 -2.247335 0.840636 -0.170700 -1.685824 0.629545 0.431358 -9.224688 -4.070308 -1.103967 18.961901 -7.755727 -2.082500 15.662606 -0.141551 55.581515 31.302900 80.457211 3.127972 9.447455 36.949920 29.755992 -8.551985 -16.323990 0.900118 8.187163 -10.720284 -59.621671 39.226278 -85.617473 -5.621927 12.426396 -45.695639 -32.413277 -24.035364 32.373468 -1.209739 -7.297994 -2.257379 2.807588 -4.420657 -9.874143 -1.615266 6.322081 0.501676 -0.064805 -0.119750 -0.004622 -0.650468 -8.061878 1.290367 0.468176 -2.737953 0.892766 -3.638393 4.820529 -1.480781 -0.005464 -0.127615 0.005029 
